<svg width="84" height="29" viewBox="0 0 84 29" fill="none" xmlns="http://www.w3.org/2000/svg">
<path d="M15.9118 23.6254L19.2958 21.8614L19.4038 22.0774C17.7718 24.1174 16.6078 25.5454 15.9118 26.3614C15.2158 27.1774 14.6038 27.7774 14.0758 28.1614C13.5478 28.5454 13.0198 28.7374 12.4918 28.7374C11.7718 28.7374 11.2318 28.4014 10.8718 27.7294C10.5118 27.0574 10.3318 26.0854 10.3318 24.8134C10.3318 24.5014 10.3558 23.9854 10.4038 23.2654L13.3918 12.7174H12.9598C11.2318 17.9014 9.56378 21.8974 7.95578 24.7054C6.34778 27.4894 4.59578 28.8814 2.69978 28.8814C1.97978 28.8814 1.35578 28.6534 0.827777 28.1974C0.323777 27.7174 0.0717773 26.9494 0.0717773 25.8934C0.0717773 25.0054 0.299777 23.8894 0.755777 22.5454L3.77978 13.9414H3.70778L0.215777 15.7414L0.107777 15.4894C1.73978 13.4494 2.90378 12.0334 3.59978 11.2414C4.29578 10.4254 4.90778 9.82543 5.43578 9.44143C5.96378 9.05743 6.50378 8.86543 7.05578 8.86543C7.75178 8.86543 8.27978 9.20143 8.63978 9.87343C8.99978 10.5454 9.17978 11.5054 9.17978 12.7534C9.17978 13.0654 9.15578 13.5814 9.10778 14.3014L6.62378 21.2854C6.26378 22.3654 6.08378 23.1934 6.08378 23.7694C6.08378 24.2494 6.21578 24.4894 6.47978 24.4894C7.07978 24.4894 7.88378 23.3854 8.89178 21.1774C9.92378 18.9694 11.4598 15.0094 13.4998 9.29743H19.5118L15.9118 23.6254Z" fill="white"/>
<path d="M35.1906 23.8054L38.6826 22.0054L38.7906 22.2574C37.1586 24.2974 35.9946 25.7254 35.2986 26.5414C34.6026 27.3334 33.9906 27.9214 33.4626 28.3054C32.9346 28.6894 32.3946 28.8814 31.8426 28.8814C31.1466 28.8814 30.6186 28.5454 30.2586 27.8734C29.8986 27.2014 29.7186 26.2414 29.7186 24.9934C29.7186 24.6814 29.7426 24.1654 29.7906 23.4454L32.2746 16.4614C32.6346 15.3814 32.8146 14.5534 32.8146 13.9774C32.8146 13.4974 32.6826 13.2574 32.4186 13.2574C31.8186 13.2574 31.0026 14.3614 29.9706 16.5694C28.9626 18.7774 27.4386 22.7374 25.3986 28.4494H19.2786L25.5426 3.68143L23.6706 3.17743L23.7066 2.96143L32.1306 0.513428H32.3466L32.3106 0.549427L32.4186 0.513428L25.4706 25.0294H25.9026C27.6546 19.8454 29.3346 15.8614 30.9426 13.0774C32.5506 10.2694 34.3026 8.86543 36.1986 8.86543C36.9186 8.86543 37.5306 9.10543 38.0346 9.58543C38.5386 10.0414 38.7906 10.7854 38.7906 11.8174C38.7906 12.8014 38.5626 13.9294 38.1066 15.2014L35.1186 23.8054H35.1906Z" fill="white"/>
<path d="M57.219 9.51343L43.431 23.1574L47.679 23.2294C48.927 23.2534 49.875 23.1934 50.523 23.0494C51.171 22.8814 51.651 22.6654 51.963 22.4014C52.275 22.1134 52.743 21.5854 53.367 20.8174L53.583 20.8894L51.171 28.4494H36.951V28.2694L50.919 14.6254L46.635 14.5174C45.531 14.5174 44.643 14.6014 43.971 14.7694C43.299 14.9134 42.747 15.1534 42.315 15.4894C41.883 15.8254 41.415 16.3174 40.911 16.9654L40.659 16.8214L43.107 9.29743H57.219V9.51343Z" fill="white"/>
<path d="M79.9949 23.8054L83.4869 22.0054L83.5949 22.2574C81.9629 24.2974 80.7989 25.7254 80.1029 26.5414C79.4069 27.3334 78.7949 27.9214 78.2669 28.3054C77.7389 28.6894 77.2109 28.8814 76.6829 28.8814C75.9629 28.8814 75.4229 28.5454 75.0629 27.8734C74.7029 27.2014 74.5229 26.2414 74.5229 24.9934C74.5229 24.6814 74.5469 24.1654 74.5949 23.4454L77.0789 16.4614C77.2229 16.0774 77.3549 15.6574 77.4749 15.2014C77.5949 14.7214 77.6549 14.3134 77.6549 13.9774C77.6549 13.4974 77.5229 13.2574 77.2589 13.2574C76.6589 13.2574 75.8309 14.3734 74.7749 16.6054C73.7429 18.8134 72.2189 22.7614 70.2029 28.4494H63.9749L67.6109 17.0014C67.9229 16.0654 68.0789 15.2494 68.0789 14.5534C68.0789 14.0254 67.9469 13.7614 67.6829 13.7614C67.2989 13.7614 66.8549 14.1814 66.3509 15.0214C65.8709 15.8374 65.2349 17.2534 64.4429 19.2694C63.6509 21.2854 62.5109 24.3454 61.0229 28.4494H54.9389L58.8629 14.1214L55.4429 15.8854L55.3349 15.6334C56.9669 13.5934 58.1309 12.1774 58.8269 11.3854C59.5229 10.5694 60.1349 9.96943 60.6629 9.58543C61.1909 9.20143 61.7309 9.00943 62.2829 9.00943C62.9789 9.00943 63.5069 9.34543 63.8669 10.0174C64.2269 10.6894 64.4069 11.6494 64.4069 12.8974C64.4069 13.2094 64.3829 13.7254 64.3349 14.4454L61.0949 25.0294H61.5269C63.2789 19.8454 64.9589 15.8614 66.5669 13.0774C68.1749 10.2694 69.9269 8.86543 71.8229 8.86543C72.5189 8.86543 73.1069 9.10543 73.5869 9.58543C74.0909 10.0414 74.3429 10.7854 74.3429 11.8174C74.3429 12.7054 74.1149 13.8334 73.6589 15.2014L70.3109 25.0294H70.7429C72.4949 19.8454 74.1749 15.8614 75.7829 13.0774C77.3909 10.2694 79.1429 8.86543 81.0389 8.86543C81.7589 8.86543 82.3709 9.10543 82.8749 9.58543C83.3789 10.0414 83.6309 10.7854 83.6309 11.8174C83.6309 12.7054 83.4029 13.8334 82.9469 15.2014L79.9589 23.8054H79.9949Z" fill="white"/>
</svg>
